<svg width="52" height="52" viewBox="0 0 52 52" fill="none" xmlns="http://www.w3.org/2000/svg">
<mask id="path-1-inside-1_4_216" fill="white">
<path d="M47.5065 25.9575C47.5065 37.7357 37.9584 47.2837 26.1803 47.2837C14.4021 47.2837 4.854 37.7357 4.854 25.9575C4.854 14.1793 14.4021 4.63123 26.1803 4.63123C37.9584 4.63123 47.5065 14.1793 47.5065 25.9575ZM7.06636 25.9575C7.06636 36.5138 15.6239 45.0714 26.1803 45.0714C36.7366 45.0714 45.2942 36.5138 45.2942 25.9575C45.2942 15.4012 36.7366 6.84358 26.1803 6.84358C15.6239 6.84358 7.06636 15.4012 7.06636 25.9575Z"/>
</mask>
<path d="M47.5065 25.9575C47.5065 37.7357 37.9584 47.2837 26.1803 47.2837C14.4021 47.2837 4.854 37.7357 4.854 25.9575C4.854 14.1793 14.4021 4.63123 26.1803 4.63123C37.9584 4.63123 47.5065 14.1793 47.5065 25.9575ZM7.06636 25.9575C7.06636 36.5138 15.6239 45.0714 26.1803 45.0714C36.7366 45.0714 45.2942 36.5138 45.2942 25.9575C45.2942 15.4012 36.7366 6.84358 26.1803 6.84358C15.6239 6.84358 7.06636 15.4012 7.06636 25.9575Z" stroke="#4F45EB" stroke-width="14.9284" mask="url(#path-1-inside-1_4_216)"/>
<mask id="path-2-inside-2_4_216" fill="white">
<path d="M4.58719 27.198C4.39512 23.8547 4.98205 20.5124 6.30174 17.4346C7.62143 14.3567 9.63781 11.6273 12.192 9.46154C14.7462 7.29572 17.7685 5.75262 21.0207 4.95382C24.2728 4.15501 27.6661 4.12233 30.9331 4.85834L30.306 7.64147C27.47 7.00255 24.5244 7.03092 21.7012 7.72436C18.878 8.41779 16.2544 9.75735 14.0371 11.6375C11.8198 13.5176 10.0694 15.8869 8.92377 18.5588C7.77816 21.2307 7.26865 24.1321 7.43538 27.0344L4.58719 27.198Z"/>
</mask>
<path d="M4.58719 27.198C4.39512 23.8547 4.98205 20.5124 6.30174 17.4346C7.62143 14.3567 9.63781 11.6273 12.192 9.46154C14.7462 7.29572 17.7685 5.75262 21.0207 4.95382C24.2728 4.15501 27.6661 4.12233 30.9331 4.85834L30.306 7.64147C27.47 7.00255 24.5244 7.03092 21.7012 7.72436C18.878 8.41779 16.2544 9.75735 14.0371 11.6375C11.8198 13.5176 10.0694 15.8869 8.92377 18.5588C7.77816 21.2307 7.26865 24.1321 7.43538 27.0344L4.58719 27.198Z" stroke="#F7F7FF" stroke-width="14.9284" mask="url(#path-2-inside-2_4_216)"/>
<path d="M22.4502 20.9815C23.489 20.2039 24.7828 19.7374 26.1823 19.7374C29.6158 19.7374 32.4025 22.5241 32.4025 25.9576C32.4025 29.3911 29.6158 32.1777 26.1823 32.1777C22.7488 32.1777 19.9622 29.3911 19.9622 25.9576C19.9622 24.8317 20.2607 23.7743 20.7894 22.8599L26.1823 25.9576" stroke="#4F45EB" stroke-width="1.06631" stroke-miterlimit="10" stroke-linecap="round" stroke-linejoin="round"/>
<path d="M22.9652 24.0666C22.6356 24.6202 22.449 25.2671 22.449 25.9576C22.449 28.0164 24.1222 29.6897 26.1811 29.6897C28.2399 29.6897 29.9132 28.0164 29.9132 25.9576C29.9132 23.8987 28.2399 22.2255 26.1811 22.2255C25.615 22.2255 25.0739 22.3499 24.5949 22.58" stroke="#4F45EB" stroke-width="1.06631" stroke-miterlimit="10" stroke-linecap="round" stroke-linejoin="round"/>
</svg>
