<svg width="24" height="18" viewBox="0 0 24 18" fill="none" xmlns="http://www.w3.org/2000/svg">
<g clip-path="url(#clip0_1425_26757)">
<rect width="24" height="18" rx="2" fill="white"/>
<path fill-rule="evenodd" clip-rule="evenodd" d="M-4 -3H28V21H-4V-3Z" fill="#E31D1C"/>
<path fill-rule="evenodd" clip-rule="evenodd" d="M-4 -1V1H28V-1H-4ZM-4 3V5H28V3H-4ZM-4 9V7H28V9H-4ZM-4 11V13H28V11H-4ZM-4 17V15H28V17H-4ZM-4 21V19H28V21H-4Z" fill="#F7FCFF"/>
<rect x="-4" y="-3" width="18" height="14" fill="#2E42A5"/>
<path fill-rule="evenodd" clip-rule="evenodd" d="M-1.92038 1.3475L-0.860543 0.609233L-0.0384247 1.2011H-0.503906L0.43743 2.03369L0.119487 3.2011H-0.378489L-0.862024 2.12891L-1.27439 3.2011H-2.50391L-1.56257 4.03369L-1.92038 5.3475L-0.860543 4.60923L-0.0384247 5.2011H-0.503906L0.43743 6.03369L0.119488 7.2011H-0.378489L-0.862024 6.12891L-1.27439 7.2011H-2.50391L-1.56257 8.03369L-1.92038 9.3475L-0.860543 8.60923L0.164925 9.3475L-0.153899 8.03369L0.669638 7.2011H0.289783L1.13946 6.60923L1.96158 7.2011H1.49609L2.43743 8.03369L2.07962 9.3475L3.13946 8.60923L4.16493 9.3475L3.8461 8.03369L4.66964 7.2011H4.28978L5.13946 6.60923L5.96157 7.2011H5.49609L6.43743 8.03369L6.07962 9.3475L7.13946 8.60923L8.16493 9.3475L7.8461 8.03369L8.66964 7.2011H8.28978L9.13946 6.60923L9.96157 7.2011H9.49609L10.4374 8.03369L10.0796 9.3475L11.1395 8.60923L12.1649 9.3475L11.8461 8.03369L12.6696 7.2011H11.6215L11.138 6.12891L10.7256 7.2011H10.1294L9.8461 6.03369L10.6696 5.2011H10.2898L11.1395 4.60923L12.1649 5.3475L11.8461 4.03369L12.6696 3.2011H11.6215L11.138 2.12891L10.7256 3.2011H10.1294L9.8461 2.03369L10.6696 1.2011H10.2898L11.1395 0.609233L12.1649 1.3475L11.8461 0.0336938L12.6696 -0.798901H11.6215L11.138 -1.87109L10.7256 -0.798901H9.49609L10.4374 0.0336938L10.1195 1.2011H9.62151L9.13798 0.128906L8.72561 1.2011H8.1294L7.8461 0.0336938L8.66964 -0.798901H7.62151L7.13798 -1.87109L6.72561 -0.798901H5.49609L6.43743 0.0336938L6.11949 1.2011H5.62151L5.13798 0.128906L4.72561 1.2011H4.1294L3.8461 0.0336938L4.66964 -0.798901H3.62151L3.13798 -1.87109L2.72561 -0.798901H1.49609L2.43743 0.0336938L2.11949 1.2011H1.62151L1.13798 0.128906L0.725607 1.2011H0.129399L-0.153899 0.0336938L0.669638 -0.798901H-0.378489L-0.862024 -1.87109L-1.27439 -0.798901H-2.50391L-1.56257 0.0336938L-1.92038 1.3475ZM10.1195 5.2011L10.4374 4.03369L9.49609 3.2011H9.96158L9.13946 2.60923L8.28978 3.2011H8.66964L7.8461 4.03369L8.1294 5.2011H8.72561L9.13798 4.12891L9.62151 5.2011H10.1195ZM7.96158 5.2011L7.13946 4.60923L6.28978 5.2011H6.66964L5.8461 6.03369L6.1294 7.2011H6.72561L7.13798 6.12891L7.62151 7.2011H8.11949L8.43743 6.03369L7.49609 5.2011H7.96158ZM4.43743 6.03369L4.11949 7.2011H3.62151L3.13798 6.12891L2.72561 7.2011H2.1294L1.8461 6.03369L2.66964 5.2011H2.28978L3.13946 4.60923L3.96158 5.2011H3.49609L4.43743 6.03369ZM4.72561 5.2011H4.1294L3.8461 4.03369L4.66964 3.2011H4.28978L5.13946 2.60923L5.96158 3.2011H5.49609L6.43743 4.03369L6.11949 5.2011H5.62151L5.13798 4.12891L4.72561 5.2011ZM2.11949 5.2011L2.43743 4.03369L1.49609 3.2011H1.96158L1.13946 2.60923L0.289782 3.2011H0.669638L-0.153899 4.03369L0.129399 5.2011H0.725607L1.13798 4.12891L1.62151 5.2011H2.11949ZM8.43743 2.03369L8.11949 3.2011H7.62151L7.13798 2.12891L6.72561 3.2011H6.1294L5.8461 2.03369L6.66964 1.2011H6.28978L7.13946 0.609233L7.96158 1.2011H7.49609L8.43743 2.03369ZM3.96158 1.2011L3.13946 0.609233L2.28978 1.2011H2.66964L1.8461 2.03369L2.1294 3.2011H2.72561L3.13798 2.12891L3.62151 3.2011H4.11949L4.43743 2.03369L3.49609 1.2011H3.96158Z" fill="#F7FCFF"/>
</g>
<defs>
<clipPath id="clip0_1425_26757">
<rect width="24" height="18" rx="2" fill="white"/>
</clipPath>
</defs>
</svg>
